<?xml version="1.0" encoding="UTF-8"?>
<svg width="50" height="50" viewBox="0 0 50 50" xmlns="http://www.w3.org/2000/svg">
    <!-- Sun -->
    <circle cx="20" cy="20" r="9" fill="#FFD700" stroke="#FFA500" stroke-width="1"/>
    <g transform="translate(20, 20)">
        <line x1="0" y1="-12" x2="0" y2="-15" stroke="#FFA500" stroke-width="2"/>
        <line x1="0" y1="12" x2="0" y2="15" stroke="#FFA500" stroke-width="2"/>
        <line x1="-12" y1="0" x2="-15" y2="0" stroke="#FFA500" stroke-width="2"/>
        <line x1="12" y1="0" x2="15" y2="0" stroke="#FFA500" stroke-width="2"/>
        <line x1="-8.5" y1="-8.5" x2="-10.6" y2="-10.6" stroke="#FFA500" stroke-width="2"/>
        <line x1="8.5" y1="8.5" x2="10.6" y2="10.6" stroke="#FFA500" stroke-width="2"/>
        <line x1="-8.5" y1="8.5" x2="-10.6" y2="10.6" stroke="#FFA500" stroke-width="2"/>
        <line x1="8.5" y1="-8.5" x2="10.6" y2="-10.6" stroke="#FFA500" stroke-width="2"/>
    </g>
    <!-- Cloud -->
    <path d="M35 30 C35 25 30 20 25 20 C20 20 15 25 15 30 C10 30 5 35 5 40 C5 45 10 45 15 45 L35 45 C40 45 45 40 45 35 C45 30 40 30 35 30" fill="#FFFFFF" stroke="#CCCCCC" stroke-width="1"/>
</svg>